# xmcd
#
# Track frame offsets:
#	150
#	12921
#	33008
#	47268
#	59252
#	74666
#	88762
#	105101
#	119489
#	139002
#	159477
#	178171
#	198246
#	212457
#	231094
#	243272
#	263868
#	280235
#	294145
#	314763
#
# Disc length: 4399 seconds
#
# Revision: 0
# Processed by: cddbd v1.5.2PL0 Copyright (c) Steve Scherf et al.
# Submitted via: EasyCDDAExtractor 12.0.1.1
#
DISCID=14112d14
DTITLE=Steve Earle - The Absolute The Best Vol.2
DYEAR=2004
DGENRE=Country
TTITLE0=Nowhere Road
TTITLE1=The Week Of Living Dangerously
TTITLE2=Continental Trailways Blues
TTITLE3=Home to Houston
TTITLE4=Rich Man's War
TTITLE5=F the CC
TTITLE6=Comin' Around
TTITLE7=The Seeker
TTITLE8=The Revolution Starts Now
TTITLE9=Copperhead Road
TTITLE10=Johnny Come Lately
TTITLE11=Angry Young Man
TTITLE12=San Antonia Girl
TTITLE13=Fearless Heart
TTITLE14=Hopeless Romantics
TTITLE15=Once You Love
TTITLE16=Steve's Last Ramble (Feat Sharon Shannon)
TTITLE17=The Galway Girl (Feat Sharon Shannon)
TTITLE18=When I Fall (Feat Stacey Earle)
TTITLE19=I Don't Want To Lose You Yet
EXTD=
EXTT0=
EXTT1=
EXTT2=
EXTT3=
EXTT4=
EXTT5=
EXTT6=
EXTT7=
EXTT8=
EXTT9=
EXTT10=
EXTT11=
EXTT12=
EXTT13=
EXTT14=
EXTT15=
EXTT16=
EXTT17=
EXTT18=
EXTT19=
PLAYORDER=
